<?xml version="1.0" encoding="UTF-8"?><svg id="Layer_2" xmlns="http://www.w3.org/2000/svg" viewBox="0 0 537.04 101.25"><defs><style>.cls-1{fill:none;}.cls-2{fill:#e89736;}.cls-3{fill:#4a8f52;}.cls-4{fill:#3A3A3D;}</style></defs><g id="shtickle-logo"><g><path class="cls-3" d="M0,0V78.89H63V0H0ZM31.9,63.88c-7.09,0-11.6-2.05-14.41-3.92-1.41-.91-2.17-2.2-2.17-3.75,0-2.25,1.67-3.81,3.84-3.81,1.23,0,2.14,.44,3.1,1.02,2.31,1.38,5.07,2.84,9.63,2.84,4.92,0,7.55-1.61,7.55-4.69s-3.37-4.28-9.05-5.42c-10.04-2.05-14.2-5.5-14.2-12.65s6.35-12.27,15.05-12.27c5.89,0,9.9,1.52,12.42,3.07,1.44,.88,2.17,2.02,2.17,3.6,0,2.05-1.61,3.81-3.63,3.81-1.14,0-2.11-.47-3.22-.97-1.93-1.02-4.25-1.9-7.73-1.9-4.69,0-6.82,1.82-6.82,4.45s2.23,4.07,8.26,5.21c10.45,1.93,14.99,5.65,14.99,12.71s-6.03,12.65-15.78,12.65Z"/><path class="cls-2" d="M67.72,0V78.89h63V0h-63Zm48.76,59.22c0,2.75-1.61,4.39-4.1,4.39s-4.07-1.64-4.07-4.39v-12.8h-18.18v12.8c0,2.75-1.61,4.39-4.1,4.39s-4.07-1.64-4.07-4.39V25.9c0-2.75,1.61-4.39,4.07-4.39s4.1,1.64,4.1,4.39v12.91h18.18v-12.91c0-2.75,1.61-4.39,4.07-4.39s4.1,1.64,4.1,4.39V59.22Z"/><path class="cls-4" d="M135.44,0V78.89h63V0h-63Zm44.87,29.41h-9.28v29.81c0,2.75-1.58,4.39-4.07,4.39s-4.1-1.64-4.1-4.39V29.41h-9.28c-2.52,0-4.07-1.49-4.07-3.84s1.55-3.78,4.07-3.78h26.73c2.52,0,4.07,1.49,4.07,3.78s-1.55,3.84-4.07,3.84Z"/><path class="cls-3" d="M203.16,0V78.89h63V0h-63Zm35.58,59.22c0,2.75-1.61,4.39-4.1,4.39s-4.07-1.64-4.07-4.39V25.9c0-2.75,1.61-4.39,4.07-4.39s4.1,1.64,4.1,4.39V59.22Z"/><path class="cls-2" d="M270.88,0V78.89h63V0h-63Zm22.77,46.31c.41,5.71,4.3,9.78,9.81,9.78,4.19,0,6.97-2.37,8.34-4.95,.91-1.52,2.02-2.55,3.84-2.55,2.23,0,3.87,1.49,3.87,3.72,0,.85-.15,1.76-.67,2.93-2.4,5.27-8.55,8.64-15.11,8.64-10.01,0-17.54-7.32-18.3-16.57-.26-3.19-.26-6.3,0-9.49,.76-9.25,8.29-16.57,18.3-16.57,6.53,0,12.56,3.1,15.14,8.52,.5,1.11,.67,2.08,.67,2.93,0,2.23-1.61,3.72-3.84,3.72-1.82,0-2.93-.94-3.81-2.34-1.38-2.55-3.98-5.01-8.43-5.01-5.5,0-9.4,4.04-9.81,9.78-.18,2.43-.18,5.04,0,7.47Z"/><path class="cls-4" d="M338.6,0V78.89h63V0h-63Zm43.86,63.61c-1.35,0-2.55-.5-3.72-1.82l-13.24-14.08c-1.11-1.23-1.14-1.26-3.37-1.26v12.77c0,2.75-1.61,4.39-4.1,4.39s-4.07-1.64-4.07-4.39V25.9c0-2.75,1.61-4.39,4.07-4.39s4.1,1.64,4.1,4.39v12.85c2.17,0,2.2,0,3.37-1.26l13.26-14.17c1.14-1.29,2.23-1.82,3.54-1.82,2.11,0,3.75,1.49,3.75,3.63,0,1.2-.53,2.28-1.58,3.43l-13.12,13.73,13.38,14.03c1.11,1.23,1.49,2.49,1.49,3.51,0,2.31-1.58,3.78-3.78,3.78Z"/><path class="cls-3" d="M406.32,0V78.89h63V0h-63Zm41.47,63.32h-18.27c-3.75,0-5.77-2.02-5.77-5.83V25.9c0-2.75,1.61-4.39,4.07-4.39s4.1,1.64,4.1,4.39v29.81h15.87c2.55,0,4.1,1.49,4.1,3.81s-1.55,3.81-4.1,3.81Z"/><path class="cls-2" d="M474.04,0V78.89h63V0h-63Zm41.81,63.32h-18.92c-3.78,0-5.8-2.02-5.8-5.83V27.63c0-3.81,2.02-5.83,5.8-5.83h18.86c2.52,0,4.07,1.49,4.07,3.81s-1.55,3.81-4.07,3.81h-16.46v9.63h14.76c2.34,0,3.81,1.41,3.81,3.57s-1.46,3.57-3.81,3.57h-14.76v9.52h16.51c2.55,0,4.1,1.49,4.1,3.78s-1.55,3.84-4.1,3.84Z"/><polygon class="cls-3" points="63.27 79.11 .35 79.11 0 78.89 63 78.89 63.27 79.11"/><polygon class="cls-3" points="89.99 101.25 35.36 101.25 7.81 83.83 68.96 83.83 89.99 101.25"/><polygon class="cls-2" points="130.9 79.11 67.98 79.11 67.72 78.89 130.72 78.89 130.9 79.11"/><polygon class="cls-2" points="148.71 101.25 94.08 101.25 73.54 83.83 134.7 83.83 148.71 101.25"/><polygon class="cls-4" points="198.53 79.11 135.61 79.11 135.44 78.89 198.44 78.89 198.53 79.11"/><polygon class="cls-4" points="207.44 101.25 152.81 101.25 139.28 83.83 200.43 83.83 207.44 101.25"/><polygon class="cls-3" points="266.16 78.89 266.16 79.11 203.24 79.11 203.16 78.89 266.16 78.89"/><polygon class="cls-3" points="266.16 83.83 266.16 101.25 211.53 101.25 205.01 83.83 266.16 83.83"/><polygon class="cls-2" points="331.89 83.83 324.88 101.25 270.25 101.25 270.74 83.83 331.89 83.83"/><polygon class="cls-2" points="333.88 78.89 333.79 79.11 270.87 79.11 270.88 78.89 333.88 78.89"/><polygon class="cls-4" points="397.62 83.83 383.61 101.25 328.98 101.25 336.47 83.83 397.62 83.83"/><polygon class="cls-4" points="401.6 78.89 401.42 79.11 338.51 79.11 338.6 78.89 401.6 78.89"/><polygon class="cls-3" points="463.36 83.83 442.33 101.25 387.7 101.25 402.21 83.83 463.36 83.83"/><polygon class="cls-3" points="469.32 78.89 469.05 79.11 406.14 79.11 406.32 78.89 469.32 78.89"/><polygon class="cls-2" points="529.09 83.83 501.06 101.25 446.42 101.25 467.94 83.83 529.09 83.83"/><polygon class="cls-2" points="537.04 78.89 536.69 79.11 473.77 79.11 474.04 78.89 537.04 78.89"/><line class="cls-1" x1="536.69" y1="79.11" x2="529.09" y2="83.83"/></g></g></svg>